<svg height="300px" width="300px" fill="#000000" xmlns="http://www.w3.org/2000/svg" xmlns:xlink="http://www.w3.org/1999/xlink" version="1.1" x="0px" y="0px" viewBox="0 0 32 32" enable-background="new 0 0 32 32" xml:space="preserve"><g display="none"><rect x="-294" y="-54.25" display="inline" fill="#000000" width="411.25" height="211.25"/></g><g display="none"><circle display="inline" fill="#000000" cx="2.064" cy="14.368" r="2.079"/><circle display="inline" fill="#000000" cx="2.064" cy="26.369" r="2.079"/><circle display="inline" fill="#000000" cx="29.936" cy="5.631" r="2.079"/><circle display="inline" fill="#000000" cx="9.072" cy="6.717" r="2.079"/><circle display="inline" fill="#000000" cx="20.498" cy="12.67" r="2.079"/><polyline display="inline" fill="#000000" stroke="#000000" stroke-miterlimit="10" points="2.064,13.824 9.233,6.655 20.498,12.8    29.716,5.631  "/><circle display="inline" fill="#000000" cx="29.936" cy="17.632" r="2.079"/><circle display="inline" fill="#000000" cx="9.072" cy="18.718" r="2.079"/><circle display="inline" fill="#000000" cx="20.498" cy="24.671" r="2.079"/><polyline display="inline" fill="#000000" stroke="#000000" stroke-miterlimit="10" points="2.064,25.825 9.233,18.656 20.498,24.801    29.716,17.632  "/></g><g><path d="M2.064,16.447c1.148,0,2.079-0.931,2.079-2.079c0-0.532-0.206-1.013-0.535-1.381l4.459-4.459   c0.299,0.166,0.638,0.269,1.004,0.269c0.654,0,1.231-0.308,1.612-0.781l7.776,4.242c-0.027,0.133-0.042,0.271-0.042,0.412   c0,1.148,0.931,2.079,2.079,2.079s2.079-0.931,2.079-2.079c0-0.263-0.054-0.512-0.143-0.744l6.115-4.756   c0.368,0.332,0.851,0.54,1.386,0.54c1.148,0,2.079-0.931,2.079-2.079s-0.931-2.079-2.079-2.079s-2.079,0.931-2.079,2.079   c0,0.251,0.051,0.488,0.133,0.71l-6.13,4.768c-0.365-0.319-0.837-0.518-1.36-0.518c-0.648,0-1.219,0.302-1.6,0.767L11.112,7.11   c0.024-0.127,0.04-0.258,0.04-0.393c0-1.148-0.931-2.079-2.079-2.079S6.993,5.569,6.993,6.717c0,0.418,0.126,0.806,0.339,1.133   l-4.568,4.568c-0.22-0.079-0.453-0.129-0.7-0.129c-1.148,0-2.079,0.931-2.079,2.079S0.916,16.447,2.064,16.447z"/><path d="M2.064,28.448c1.148,0,2.079-0.931,2.079-2.079c0-0.532-0.206-1.013-0.535-1.381l4.459-4.459   c0.299,0.166,0.638,0.269,1.004,0.269c0.654,0,1.231-0.308,1.612-0.781l7.776,4.242c-0.027,0.133-0.042,0.271-0.042,0.412   c0,1.148,0.931,2.079,2.079,2.079s2.079-0.931,2.079-2.079c0-0.263-0.054-0.512-0.143-0.744l6.115-4.756   c0.368,0.332,0.851,0.54,1.386,0.54c1.148,0,2.079-0.931,2.079-2.079c0-1.148-0.931-2.079-2.079-2.079s-2.079,0.931-2.079,2.079   c0,0.251,0.051,0.488,0.133,0.71l-6.13,4.768c-0.365-0.319-0.837-0.518-1.36-0.518c-0.648,0-1.219,0.302-1.6,0.767l-7.786-4.247   c0.024-0.128,0.04-0.258,0.04-0.393c0-1.148-0.931-2.079-2.079-2.079s-2.079,0.931-2.079,2.079c0,0.418,0.126,0.806,0.339,1.133   l-4.568,4.568c-0.22-0.079-0.453-0.129-0.7-0.129c-1.148,0-2.079,0.931-2.079,2.079C-0.015,27.517,0.916,28.448,2.064,28.448z"/></g></svg>